# xmcd
#
# Track frame offsets:
#	150
#	13373
#	27989
#	46621
#	61895
#	71762
#	83978
#	97250
#	109229
#	122544
#	136353
#	150360
#
# Disc length: 2183 seconds
#
# Revision: 0
# Processed by: cddbd v1.5.2PL0 Copyright (c) Steve Scherf et al.
# Submitted via: EasyCDDAExtractor 10.0.2.1
#
DISCID=9e08850c
DTITLE=Truck Stop - Profile
DYEAR=1979
DGENRE=Country
TTITLE0=Jackson
TTITLE1=Hello Mary Lou
TTITLE2=Help Me Make It Through The Night
TTITLE3=Goin' To Washington
TTITLE4=Fool For Loosing You
TTITLE5=Ring Of Fire
TTITLE6=Jambalaya
TTITLE7=Rosalie
TTITLE8=You'll Find The Way
TTITLE9=Alabama Princess
TTITLE10=Prison Bound
TTITLE11=I Take A Lot Of Pride In What I Am
EXTD=
EXTT0=
EXTT1=
EXTT2=
EXTT3=
EXTT4=
EXTT5=
EXTT6=
EXTT7=
EXTT8=
EXTT9=
EXTT10=
EXTT11=
PLAYORDER=
